<svg version="1.1"
    baseProfile="full"
    width="400" height="500"
    xmlns="http://www.w3.org/2000/svg">

    <rect width="100%" height="100%" fill="#321414"/>
    <text x="200" y="50" font-size="22" text-anchor="middle" fill="white">How many COLOR_NAME squares?</text>

    <rect x="65" y = "110" width="60" height="60" rx="15" fill="#123456"/>
    <rect x="135" y = "110" width="60" height="60" rx="15" fill="#123456"/>
    <rect x="205" y = "110" width="60" height="60" rx="15" fill="#123456"/>
    <rect x="275" y = "110" width="60" height="60" rx="15" fill="#123456"/>
    <rect x="65" y = "175" width="60" height="60" rx="15" fill="#123456"/>
    <rect x="135" y = "175" width="60" height="60" rx="15" fill="#123456"/>
    <rect x="205" y = "175" width="60" height="60" rx="15" fill="#123456"/>
    <rect x="275" y = "175" width="60" height="60" rx="15" fill="#123456"/>
    <rect x="65" y = "240" width="60" height="60" rx="15" fill="#123456"/>
    <rect x="135" y = "240" width="60" height="60" rx="15" fill="#123456"/>
    <rect x="205" y = "240" width="60" height="60" rx="15" fill="#123456"/>
    <rect x="275" y = "240" width="60" height="60" rx="15" fill="#123456"/>
    <rect x="65" y = "305" width="60" height="60" rx="15" fill="#123456"/>
    <rect x="135" y = "305" width="60" height="60" rx="15" fill="#123456"/>
    <rect x="205" y = "305" width="60" height="60" rx="15" fill="#123456"/>
    <rect x="275" y = "305" width="60" height="60" rx="15" fill="#123456"/>
    <rect x="65" y = "370" width="60" height="60" rx="15" fill="#123456"/>
    <rect x="135" y = "370" width="60" height="60" rx="15" fill="#123456"/>
    <rect x="205" y = "370" width="60" height="60" rx="15" fill="#123456"/>
    <rect x="275" y = "370" width="60" height="60" rx="15" fill="#123456"/>
    <rect x="65" y = "435" width="60" height="60" rx="15" fill="#123456"/>
    <rect x="135" y = "435" width="60" height="60" rx="15" fill="#123456"/>
    <rect x="205" y = "435" width="60" height="60" rx="15" fill="#123456"/>
    <rect x="275" y = "435" width="60" height="60" rx="15" fill="#123456"/>

    </svg>
