<svg version="1.1"
    baseProfile="full"
    width="400" height="470"
    xmlns="http://www.w3.org/2000/svg">

    <rect width="100%" height="100%" fill="#321414"/>
    <text x="200" y="50" font-size="30" text-anchor="middle" fill="white">How many COLOR_NAME squares?</text>

    <rect x="8" y = "83" width="85" height="85" rx="15" fill="#123456"/>
    <rect x="8" y = "181" width="85" height="85" rx="15" fill="#123456"/>
    <rect x="8" y = "279" width="85" height="85" rx="15" fill="#123456"/>
    <rect x="8" y = "377" width="85" height="85" rx="15" fill="#123456"/>
    <rect x="106" y = "83" width="85" height="85" rx="15" fill="#123456"/>
    <rect x="106" y = "181" width="85" height="85" rx="15" fill="#123456"/>
    <rect x="106" y = "279" width="85" height="85" rx="15" fill="#123456"/>
    <rect x="106" y = "377" width="85" height="85" rx="15" fill="#123456"/>
    <rect x="204" y = "83" width="85" height="85" rx="15" fill="#123456"/>
    <rect x="204" y = "181" width="85" height="85" rx="15" fill="#123456"/>
    <rect x="204" y = "279" width="85" height="85" rx="15" fill="#123456"/>
    <rect x="204" y = "377" width="85" height="85" rx="15" fill="#123456"/>
    <rect x="302" y = "83" width="85" height="85" rx="15" fill="#123456"/>
    <rect x="302" y = "181" width="85" height="85" rx="15" fill="#123456"/>
    <rect x="302" y = "279" width="85" height="85" rx="15" fill="#123456"/>
    <rect x="302" y = "377" width="85" height="85" rx="15" fill="#123456"/>

    </svg>
