<svg version="1.1"
    baseProfile="full"
    width="400" height="500"
    xmlns="http://www.w3.org/2000/svg">

    <rect width="100%" height="100%" fill="#321414"/>
    <text x="200" y="50" font-size="22" text-anchor="middle" fill="white">How many COLOR_NAME squares?</text>

    <rect x="34" y = "112" width="88" height="88" rx="15" fill="#123456"/>
    <rect x="156" y = "112" width="88" height="88" rx="15" fill="#123456"/>
    <rect x="278" y = "112" width="88" height="88" rx="15" fill="#123456"/>
    <rect x="34" y = "208" width="88" height="88" rx="15" fill="#123456"/>
    <rect x="156" y = "208" width="88" height="88" rx="15" fill="#123456"/>
    <rect x="278" y = "208" width="88" height="88" rx="15" fill="#123456"/>
    <rect x="34" y = "304" width="88" height="88" rx="15" fill="#123456"/>
    <rect x="156" y = "304" width="88" height="88" rx="15" fill="#123456"/>
    <rect x="278" y = "304" width="88" height="88" rx="15" fill="#123456"/>
    <rect x="34" y = "400" width="88" height="88" rx="15" fill="#123456"/>
    <rect x="156" y = "400" width="88" height="88" rx="15" fill="#123456"/>
    <rect x="278" y = "400" width="88" height="88" rx="15" fill="#123456"/>

    </svg>
